<mxfile host="65bd71144e">
    <diagram id="VEg8xALm6v9PRS3RR0D-" name="Page-1">
        <mxGraphModel dx="1116" dy="502" grid="1" gridSize="10" guides="1" tooltips="1" connect="1" arrows="1" fold="1" page="1" pageScale="1" pageWidth="827" pageHeight="1169" math="0" shadow="0">
            <root>
                <mxCell id="0"/>
                <mxCell id="1" parent="0"/>
                <mxCell id="3" value="" style="shape=umlLifeline;participant=umlActor;perimeter=lifelinePerimeter;whiteSpace=wrap;html=1;container=1;collapsible=0;recursiveResize=0;verticalAlign=top;spacingTop=36;outlineConnect=0;" vertex="1" parent="1">
                    <mxGeometry x="80" y="60" width="20" height="460" as="geometry"/>
                </mxCell>
                <mxCell id="4" value="a.example.com" style="shape=umlLifeline;perimeter=lifelinePerimeter;whiteSpace=wrap;html=1;container=1;collapsible=0;recursiveResize=0;outlineConnect=0;" vertex="1" parent="1">
                    <mxGeometry x="150" y="60" width="100" height="460" as="geometry"/>
                </mxCell>
                <mxCell id="5" value="b.example.com" style="shape=umlLifeline;perimeter=lifelinePerimeter;whiteSpace=wrap;html=1;container=1;collapsible=0;recursiveResize=0;outlineConnect=0;" vertex="1" parent="1">
                    <mxGeometry x="300" y="60" width="100" height="460" as="geometry"/>
                </mxCell>
                <mxCell id="6" value="SSO (*.example.com)" style="shape=umlLifeline;perimeter=lifelinePerimeter;whiteSpace=wrap;html=1;container=1;collapsible=0;recursiveResize=0;outlineConnect=0;" vertex="1" parent="1">
                    <mxGeometry x="450" y="60" width="100" height="460" as="geometry"/>
                </mxCell>
                <mxCell id="7" value="" style="html=1;points=[];perimeter=orthogonalPerimeter;" vertex="1" parent="1">
                    <mxGeometry x="195" y="130" width="10" height="40" as="geometry"/>
                </mxCell>
                <mxCell id="8" value="访问 a.example.com" style="html=1;verticalAlign=bottom;endArrow=block;entryX=-0.017;entryY=-0.004;entryDx=0;entryDy=0;entryPerimeter=0;" edge="1" parent="1" target="7">
                    <mxGeometry width="80" relative="1" as="geometry">
                        <mxPoint x="94" y="130" as="sourcePoint"/>
                        <mxPoint x="190" y="140" as="targetPoint"/>
                        <Array as="points">
                            <mxPoint x="140" y="130"/>
                        </Array>
                    </mxGeometry>
                </mxCell>
                <mxCell id="10" value="" style="html=1;points=[];perimeter=orthogonalPerimeter;" vertex="1" parent="1">
                    <mxGeometry x="495" y="160" width="10" height="130" as="geometry"/>
                </mxCell>
                <mxCell id="11" value="未授权，跳转 SSO" style="html=1;verticalAlign=bottom;endArrow=block;entryX=-0.214;entryY=0.202;entryDx=0;entryDy=0;entryPerimeter=0;" edge="1" parent="1" source="13" target="10">
                    <mxGeometry width="80" relative="1" as="geometry">
                        <mxPoint x="200" y="170" as="sourcePoint"/>
                        <mxPoint x="495" y="170" as="targetPoint"/>
                    </mxGeometry>
                </mxCell>
                <mxCell id="13" value="" style="html=1;points=[];perimeter=orthogonalPerimeter;" vertex="1" parent="1">
                    <mxGeometry x="85" y="120" width="10" height="380" as="geometry"/>
                </mxCell>
                <mxCell id="14" value="返回需要授权" style="html=1;verticalAlign=bottom;endArrow=block;dashed=1;entryX=1.066;entryY=0.261;entryDx=0;entryDy=0;entryPerimeter=0;" edge="1" parent="1" target="13">
                    <mxGeometry width="80" relative="1" as="geometry">
                        <mxPoint x="492" y="219" as="sourcePoint"/>
                        <mxPoint x="95" y="200" as="targetPoint"/>
                        <Array as="points"/>
                    </mxGeometry>
                </mxCell>
                <mxCell id="15" value="授权" style="html=1;verticalAlign=bottom;endArrow=block;" edge="1" parent="1" source="13" target="10">
                    <mxGeometry width="80" relative="1" as="geometry">
                        <mxPoint x="95" y="240" as="sourcePoint"/>
                        <mxPoint x="390" y="240" as="targetPoint"/>
                        <Array as="points">
                            <mxPoint x="240" y="250"/>
                        </Array>
                    </mxGeometry>
                </mxCell>
                <mxCell id="17" value="Set-Cookie: session_id = xxxx; domain = .example.com，并指示跳转回原页面" style="html=1;verticalAlign=bottom;endArrow=block;dashed=1;" edge="1" parent="1" source="10" target="13">
                    <mxGeometry width="80" relative="1" as="geometry">
                        <mxPoint x="490" y="289" as="sourcePoint"/>
                        <mxPoint x="110" y="280" as="targetPoint"/>
                        <Array as="points">
                            <mxPoint x="300" y="280"/>
                        </Array>
                    </mxGeometry>
                </mxCell>
                <mxCell id="18" value="" style="html=1;points=[];perimeter=orthogonalPerimeter;" vertex="1" parent="1">
                    <mxGeometry x="195" y="320" width="10" height="80" as="geometry"/>
                </mxCell>
                <mxCell id="19" value="访问 a.example.com" style="html=1;verticalAlign=bottom;endArrow=block;" edge="1" parent="1" target="18">
                    <mxGeometry width="80" relative="1" as="geometry">
                        <mxPoint x="95" y="330.15999999999997" as="sourcePoint"/>
                        <mxPoint x="190" y="330" as="targetPoint"/>
                        <Array as="points">
                            <mxPoint x="145.5" y="330.15999999999997"/>
                        </Array>
                    </mxGeometry>
                </mxCell>
                <mxCell id="27" value="根据 Cookie 中的&lt;br&gt;session_id 获取信息" style="edgeStyle=orthogonalEdgeStyle;html=1;align=left;spacingLeft=2;endArrow=block;rounded=0;entryX=0.962;entryY=0.627;entryDx=0;entryDy=0;entryPerimeter=0;" edge="1" parent="1" target="18">
                    <mxGeometry relative="1" as="geometry">
                        <mxPoint x="205" y="350" as="sourcePoint"/>
                        <Array as="points">
                            <mxPoint x="235" y="350"/>
                            <mxPoint x="235" y="370"/>
                        </Array>
                        <mxPoint x="210" y="370" as="targetPoint"/>
                    </mxGeometry>
                </mxCell>
                <mxCell id="28" value="未授权，&lt;br&gt;指示跳转 SSO" style="html=1;verticalAlign=bottom;endArrow=block;dashed=1;" edge="1" parent="1" source="7">
                    <mxGeometry width="80" relative="1" as="geometry">
                        <mxPoint x="495" y="149.17000000000002" as="sourcePoint"/>
                        <mxPoint x="94" y="170" as="targetPoint"/>
                    </mxGeometry>
                </mxCell>
                <mxCell id="30" value="返回资源" style="html=1;verticalAlign=bottom;endArrow=block;dashed=1;exitX=0.134;exitY=0.859;exitDx=0;exitDy=0;exitPerimeter=0;" edge="1" parent="1" source="18">
                    <mxGeometry width="80" relative="1" as="geometry">
                        <mxPoint x="190" y="390" as="sourcePoint"/>
                        <mxPoint x="90" y="389" as="targetPoint"/>
                    </mxGeometry>
                </mxCell>
                <mxCell id="31" value="" style="html=1;points=[];perimeter=orthogonalPerimeter;" vertex="1" parent="1">
                    <mxGeometry x="345" y="410" width="10" height="90" as="geometry"/>
                </mxCell>
                <mxCell id="32" value="访问 b.example.com" style="html=1;verticalAlign=bottom;endArrow=block;" edge="1" parent="1" target="31">
                    <mxGeometry width="80" relative="1" as="geometry">
                        <mxPoint x="95" y="430" as="sourcePoint"/>
                        <mxPoint x="195" y="430" as="targetPoint"/>
                        <Array as="points">
                            <mxPoint x="145.5" y="430"/>
                        </Array>
                    </mxGeometry>
                </mxCell>
                <mxCell id="33" value="根据 Cookie 中的&lt;br&gt;session_id 获取信息" style="edgeStyle=orthogonalEdgeStyle;html=1;align=left;spacingLeft=2;endArrow=block;rounded=0;entryX=0.962;entryY=0.627;entryDx=0;entryDy=0;entryPerimeter=0;" edge="1" parent="1">
                    <mxGeometry relative="1" as="geometry">
                        <mxPoint x="355.38" y="439.8" as="sourcePoint"/>
                        <Array as="points">
                            <mxPoint x="385.38" y="439.8"/>
                            <mxPoint x="385.38" y="459.8"/>
                        </Array>
                        <mxPoint x="354.9999999999999" y="459.96" as="targetPoint"/>
                    </mxGeometry>
                </mxCell>
                <mxCell id="34" value="返回资源" style="html=1;verticalAlign=bottom;endArrow=block;dashed=1;exitX=0;exitY=0.878;exitDx=0;exitDy=0;exitPerimeter=0;entryX=1.134;entryY=0.97;entryDx=0;entryDy=0;entryPerimeter=0;" edge="1" parent="1" source="31" target="13">
                    <mxGeometry width="80" relative="1" as="geometry">
                        <mxPoint x="340" y="490" as="sourcePoint"/>
                        <mxPoint x="98" y="487" as="targetPoint"/>
                    </mxGeometry>
                </mxCell>
            </root>
        </mxGraphModel>
    </diagram>
</mxfile>